<svg width="36" height="36" viewBox="0 0 36 36" fill="none" xmlns="http://www.w3.org/2000/svg">
<path d="M36 18C36 27.9411 27.9411 36 18 36C8.05887 36 0 27.9411 0 18C0 8.05887 8.05887 0 18 0C27.9411 0 36 8.05887 36 18Z" fill="#915EFF"/>
<path d="M18 31L6 24.5V11.5L18 5L30 11.5V24.5L18 31ZM14.1333 14.425C14.6444 13.905 15.2333 13.5042 15.9 13.2225C16.5667 12.9408 17.2667 12.8 18 12.8C18.7333 12.8 19.4333 12.9408 20.1 13.2225C20.7667 13.5042 21.3556 13.905 21.8667 14.425L25.8667 12.2475L18 7.99L10.1333 12.2475L14.1333 14.425ZM16.6667 27.295V23.0375C15.4667 22.7342 14.5 22.1167 13.7667 21.185C13.0333 20.2533 12.6667 19.1917 12.6667 18C12.6667 17.7617 12.6778 17.5396 12.7 17.3337C12.7222 17.1279 12.7667 16.9167 12.8333 16.7L8.66667 14.425V22.9725L16.6667 27.295ZM18 20.6C18.7333 20.6 19.3611 20.3454 19.8833 19.8363C20.4056 19.3271 20.6667 18.715 20.6667 18C20.6667 17.285 20.4056 16.6729 19.8833 16.1637C19.3611 15.6546 18.7333 15.4 18 15.4C17.2667 15.4 16.6389 15.6546 16.1167 16.1637C15.5944 16.6729 15.3333 17.285 15.3333 18C15.3333 18.715 15.5944 19.3271 16.1167 19.8363C16.6389 20.3454 17.2667 20.6 18 20.6ZM19.3333 27.295L27.3333 22.9725V14.425L23.1667 16.7C23.2333 16.9167 23.2778 17.1279 23.3 17.3337C23.3222 17.5396 23.3333 17.7617 23.3333 18C23.3333 19.1917 22.9667 20.2533 22.2333 21.185C21.5 22.1167 20.5333 22.7342 19.3333 23.0375V27.295Z" fill="#1C1B1F"/>
</svg>
